<svg width="316.9833465576172" height="44.43580989623773" viewBox="0 0 370.00000000000006 51.86786574170855" class="looka-1j8o68f"><defs id="SvgjsDefs4534"></defs><g id="SvgjsG4535" featurekey="symbolFeature-0" transform="matrix(0.7777813381781906,0,0,0.7777813381781906,-3.888911141391469,-14.901831919260971)" fill="#3e85b7"><path xmlns="http://www.w3.org/2000/svg" d="M86.2626953,31.2838745c-1.2436523-1.7509766-2.9437866-3.2216797-4.9151001-4.4445801L81.0578003,26.65448  c-10.0050659-6.1768188-22.5686035-6.8908691-22.5686035-6.8908691s-14.4879761-1.4905396-28.0026245,0.2106323  c4.2982788-0.3986206,17.8250732-0.3250732,31.1079712,13.7368164  c15.6829834,16.6027832-0.2783203,26.5813599-10.9178467,24.7897339  c13.5184326,2.6176147,28.5919189,1.5603027,35.480896-12.1366577c3.1293945-6.2219849,2.7440186-10.9592896,0.4520264-14.557251  c3.6889038,3.9385986,4.9945679,9.4838867,1.1161499,17.2310181c-12.3829956,24.7347412-50.2827148,9.883606-61.0335693,4.1373291  S4.2945557,34.7567139,13.5895996,26.7119141c1.163269-1.0067749,2.7336426-1.8469849,4.5906372-2.5466919  c-3.9359131,1.3771362-7.246521,3.2702026-9.3623657,5.8527832c-10.4755249,12.7868652,2.6504517,31.2974243,14.7668457,40.4309082  c12.116333,9.1334839,54.8297729,32.7388306,68.7855225-6.5761108  C98.1521606,47.5844727,93.6275024,37.5082397,86.2626953,31.2838745z"></path><path xmlns="http://www.w3.org/2000/svg" d="M23.6671753,48.4591675c-0.392395-0.5911865-1.6193237-3.0639648,2.0359497-6.9261475  c4.1113892-4.3441162,14.4078979-9.1376953,26.7697754-7.9277344c0,0,5.0716553,0.3474731,7.352417,3.18927  c-0.4291992-0.5715332-0.8917847-1.1514893-1.3919678-1.7401733C46.6472168,21.1826172,34.6447144,21.1100464,30.8307495,21.5032959  c-0.4152222,0.0581055-0.8292847,0.1199951-1.2419434,0.1858521c-3.1446533,0.5018921-6.1959229,1.2341919-8.9019165,2.2819214  c-1.5899658,0.6629028-2.9344482,1.4589844-3.9303589,2.4128418C10.0442505,32.8127441,16.0874634,42.3605957,23.6671753,48.4591675  z"></path></g><g id="SvgjsG4536" featurekey="nameFeature-0" transform="matrix(1.164110730491207,0,0,1.164110730491207,89.15865484958803,-2.231243022502957)" fill="#303841"><path d="M12.266 29.59 l5.5664 0 l-2.7734 -6.543 z M9.6875 35.1562 l-0.039063 -0.019531 c-0.70313 1.6016 -1.4258 3.1836 -2.1484 4.7852 l-6.7773 0 l14.277 -31.992 l14.316 31.992 l-6.7969 0 c-0.70313 -1.582 -1.4063 -3.1836 -2.1094 -4.7656 l-10.723 0 z M31.71875 7.93 l18.887 17.988 l0 -17.402 l6.3086 0 l0 32.07 l-18.887 -18.008 l0 17.422 l-6.3086 0 l0 -32.07 z M60.0390625 40 l0 -31.484 l6.3086 0 l0 31.484 l-6.3086 0 z M69.47265625 8.515999999999998 l6.3086 0 l0 25.176 l12.578 0 l0 6.3086 l-18.887 0 l0 -31.484 z M102.421875 8.515999999999998 l6.3086 0 l0 11.953 l6.9336 -11.953 l7.2852 0 l-9.2969 15.996 l10.801 15.488 l-7.6758 0 l-8.0469 -11.563 l0 11.563 l-6.3086 0 l0 -31.484 z M145.761375 8.515999999999998 l6.3477 0 l0 12.656 l0 6.3281 c0 3.4961 -1.2305 6.4844 -3.7109 8.9648 s-5.4688 3.7109 -8.9453 3.7109 c-3.4961 0 -6.4844 -1.2305 -8.9648 -3.7109 s-3.7109 -5.4688 -3.7109 -8.9648 l0 -6.3281 l0 -12.656 l6.3477 0 l0 12.656 l0 5.6641 l0 0.64453 c0 1.7383 0.625 3.2227 1.8555 4.4531 s2.7148 1.8555 4.4531 1.8555 c1.7188 0 3.2031 -0.625 4.4531 -1.8555 s1.875 -2.7148 1.875 -4.4531 l0 -0.64453 l0 -5.6641 l0 -12.656 z M155.21484375 7.93 l15.352 21.055 l15.352 -21.055 l0 32.07 l-6.3086 0 l0 -12.988 l-9.043 12.48 l-9.043 -12.48 l0 12.988 l-6.3086 0 l0 -32.07 z M199.74646875 29.59 l5.5664 0 l-2.7734 -6.543 z M197.16796875 35.1562 l-0.078125 0.23438 l-2.0508 4.5313 l-1.0938 0 l-0.25391 0 l-4.1016 0 l-1.3477 0 l14.277 -31.992 l14.316 31.992 l-1.3477 0 l-4.1016 0 l-0.27344 0 l-1.0938 0 l-2.0313 -4.5508 l-0.097656 -0.21484 l-10.723 0 z M219.19921875 40 l-0.019531 -31.523 l10.234 0 c3.0273 0 6.0156 1.0547 8.1836 3.2227 s3.0469 4.1992 3.0469 7.2266 l0 0.97656 c0 2.3438 -0.66406 4.0625 -1.9922 5.9375 s-2.4414 2.4219 -4.5117 3.2031 l7.1094 10.957 l-7.6953 0 l-8.0469 -12.305 l0 12.305 l-6.3086 0 z M225.48831875 23.633 l4.5117 0.019531 c1.3086 0 1.9727 -0.33203 2.8906 -1.25 s1.25 -1.9727 1.25 -3.2813 c0 -1.2891 -0.33203 -2.1484 -1.25 -3.0859 s-2.5586 -1.2695 -3.8672 -1.2695 l-3.5352 0 l0 8.8672 z"></path></g></svg>